<svg width="104" height="17" viewBox="0 0 104 17" fill="none" xmlns="http://www.w3.org/2000/svg">
<path d="M8.21667 3.9511C9.9461 3.9511 11.464 4.88653 12.2728 6.28326L14.9602 4.73276C13.6165 2.41342 11.1032 0.862915 8.22911 0.862915C3.92418 0.862915 0.44043 4.34834 0.44043 8.64105C0.44043 12.9338 3.92418 16.4192 8.22911 16.4192C11.1032 16.4192 13.6165 14.8559 14.9602 12.5493L12.2728 10.9988C11.464 12.3956 9.9461 13.331 8.21667 13.331C5.62874 13.331 3.52604 11.2295 3.52604 8.65387C3.52604 6.07824 5.62874 3.9511 8.21667 3.9511Z" fill="white"/>
<path d="M65.6861 3.9511C67.4156 3.9511 68.9335 4.88653 69.7422 6.28326L72.4297 4.73276C71.0859 2.41342 68.5727 0.862915 65.6986 0.862915C61.3937 0.862915 57.9099 4.34834 57.9099 8.64105C57.9099 12.9338 61.3937 16.4192 65.6986 16.4192C68.5727 16.4192 71.0859 14.8559 72.4297 12.5493L69.7422 10.9988C68.9335 12.3956 67.4156 13.331 65.6861 13.331C63.0982 13.331 60.9955 11.2295 60.9955 8.65387C60.9955 6.07824 63.0982 3.9511 65.6861 3.9511Z" fill="white"/>
<path d="M103.56 13.0234H100.511V16.0732H103.56V13.0234Z" fill="white"/>
<path d="M23.2714 0.939697C18.9913 0.939697 15.5325 4.3995 15.5325 8.66658C15.5325 12.9337 19.0038 16.3935 23.2714 16.3935C27.539 16.3935 31.0103 12.9337 31.0103 8.66658C31.0103 4.3995 27.539 0.939697 23.2714 0.939697ZM23.2714 13.3309C20.6959 13.3309 18.6056 11.2422 18.6056 8.6794C18.6056 6.10377 20.6959 4.02789 23.2714 4.02789C25.8469 4.02789 27.9371 6.11658 27.9371 8.6794C27.9247 11.2422 25.8469 13.3309 23.2714 13.3309Z" fill="white"/>
<path d="M80.6166 1.3241H77.8545V16.4063H80.6166V1.3241Z" fill="white"/>
<path d="M88.9649 16.4319H86.0908V6.5651C86.0908 2.70807 88.6788 0.580933 91.8515 0.580933C95.0366 0.580933 97.637 2.70807 97.637 6.5651V16.4319H94.7629V10.9091H88.9774V16.4319H88.9649ZM94.7504 6.5651C94.7504 4.27138 93.4316 3.16937 91.839 3.16937C90.2589 3.16937 88.9649 4.27138 88.9649 6.5651V8.30781H94.7504V6.5651Z" fill="white"/>
<path d="M35.1908 1.23444H32.4287V16.2012H35.1908V1.23444Z" fill="white"/>
<path d="M44.5598 1.23444H42.1584V16.2012H44.5598V1.23444Z" fill="white"/>
<path d="M35.1409 1.18323L42.1581 11.5626V16.1885L35.1409 6.20635" fill="white"/>
<path d="M73.3518 1.00968V3.76471L85.1592 3.76471V1.00968L73.3518 1.00968Z" fill="white"/>
<path d="M49.7978 1.23523H47.0356V16.2021H49.7978V1.23523Z" fill="white"/>
<path d="M47.053 1.22238V3.90051L56.9195 3.90051V1.22238L47.053 1.22238Z" fill="white"/>
<path d="M47.05 13.5267V16.2048H56.9165V13.5267H47.05Z" fill="white"/>
<path d="M47.0481 7.5426V9.97729H56.3796V7.5426H47.0481Z" fill="white"/>
</svg>
